# xmcd
#
# Track frame offsets:
#	150
#	17602
#	33230
#	51318
#	68219
#	87053
#	106226
#	124807
#	144312
#	166154
#	185147
#	205027
#	222171
#	240933
#	259644
#	275446
#	297148
#	313964
#	336140
#
# Disc length: 4761 seconds
#
# Revision: 3
# Processed by: cddbd v1.5.2PL0 Copyright (c) Steve Scherf et al.
# Submitted via: audiograbber 1.83.01
#
DISCID=0f129713
DTITLE=Survivor - Burning Heart - Best [Zounds]
DYEAR=2009
DGENRE=Rock
TTITLE0=Burning Heart
TTITLE1=Poor Man's Son
TTITLE2=I Can't Hold Back
TTITLE3=Is This Love
TTITLE4=High On You
TTITLE5=The Search Is Over
TTITLE6=Eye Of The Tiger
TTITLE7=First Night
TTITLE8=Desperate Dreams
TTITLE9=American Heartbeat
TTITLE10=Didn't Know It Was Love
TTITLE11=The Moment Of Truth
TTITLE12=Summer Nights
TTITLE13=Feels Like Love
TTITLE14=The One That Really Matters
TTITLE15=I'm Not That Man Anymore
TTITLE16=Ever Since The World Began
TTITLE17=Silver Girl
TTITLE18=Rebel Son
EXTD=
EXTT0=
EXTT1=
EXTT2=
EXTT3=
EXTT4=
EXTT5=
EXTT6=
EXTT7=
EXTT8=
EXTT9=
EXTT10=
EXTT11=
EXTT12=
EXTT13=
EXTT14=
EXTT15=
EXTT16=
EXTT17=
EXTT18=
PLAYORDER=
